# xmcd
#
# Track frame offsets: 
#        150
#        4607
#        22935
#        41962
#        69150
#        91777
#        109530
#        131597
#        152012
#        173117
#        199162
#        216272
#
# Disc length: 2949 seconds
#
# Revision: 6
# Processed by: cddbd v1.5.2PL0 Copyright (c) Steve Scherf et al.
# Submitted via: ExactAudioCopy v1.0b3
#
DISCID=930b830c
DTITLE=Ol Skool - Ol Skool
DYEAR=1997
DGENRE=R&B
TTITLE0=Don't Be Afraid (Introlude)
TTITLE1=Set You Free
TTITLE2=Come With Me
TTITLE3=Slip Away
TTITLE4=Still Here 4 U
TTITLE5=Without You
TTITLE6=Just Between You And Me
TTITLE7=It Won't Let Go
TTITLE8=Don't Be Afraid
TTITLE9=Am I Dreaming (Feat. Xscape and Keith Sweat)
TTITLE10=Touch You
TTITLE11=Set You Free (Outerlude)
EXTD=
EXTT0=
EXTT1=
EXTT2=
EXTT3=
EXTT4=
EXTT5=
EXTT6=
EXTT7=
EXTT8=
EXTT9=Featuring Keith Sweat and Escape
EXTT10=
EXTT11=
PLAYORDER=
